<?xml version="1.0" encoding="UTF-8"?>
<svg xmlns="http://www.w3.org/2000/svg" width="400" height="630" viewBox="0 0 400 630">
  <rect width="400" height="189" fill="#2d2d2d" />
  <rect y="189" width="400" height="378" fill="#f7f3ed" />
  <rect y="567" width="400" height="63" fill="#2d2d2d" />
  <line x1="0" y1="189" x2="400" y2="189" stroke="#c4b8a8" stroke-width="1" />
  <line x1="0" y1="191" x2="400" y2="191" stroke="#c4b8a8" stroke-width="0.5" opacity="0.85" />

  <line x1="156" y1="46.72" x2="178" y2="46.72" stroke="#ffffff" stroke-width="0.55" />
  <line x1="156" y1="46.72" x2="156" y2="68.72" stroke="#ffffff" stroke-width="0.55" />
  <circle cx="156" cy="46.72" r="1.8" fill="#ffffff"/>
  <line x1="178" y1="46.72" x2="200" y2="46.72" stroke="#ffffff" stroke-width="0.55" />
  <line x1="178" y1="46.72" x2="178" y2="68.72" stroke="#ffffff" stroke-width="0.55" />
  <circle cx="178" cy="46.72" r="1.8" fill="#ffffff"/>
  <line x1="200" y1="46.72" x2="222" y2="46.72" stroke="#ffffff" stroke-width="0.55" />
  <line x1="200" y1="46.72" x2="200" y2="68.72" stroke="#ffffff" stroke-width="0.55" />
  <circle cx="200" cy="46.72" r="1.8" fill="#ffffff"/>
  <line x1="222" y1="46.72" x2="244" y2="46.72" stroke="#ffffff" stroke-width="0.55" />
  <line x1="222" y1="46.72" x2="222" y2="68.72" stroke="#ffffff" stroke-width="0.55" />
  <circle cx="222" cy="46.72" r="1.8" fill="#ffffff"/>
  <line x1="244" y1="46.72" x2="244" y2="68.72" stroke="#ffffff" stroke-width="0.55" />
  <circle cx="244" cy="46.72" r="1.8" fill="#ffffff"/>
  <line x1="156" y1="68.72" x2="178" y2="68.72" stroke="#ffffff" stroke-width="0.55" />
  <line x1="156" y1="68.72" x2="156" y2="90.72" stroke="#ffffff" stroke-width="0.55" />
  <circle cx="156" cy="68.72" r="1.8" fill="#ffffff"/>
  <line x1="178" y1="68.72" x2="200" y2="68.72" stroke="#ffffff" stroke-width="0.55" />
  <line x1="178" y1="68.72" x2="178" y2="90.72" stroke="#ffffff" stroke-width="0.55" />
  <circle cx="178" cy="68.72" r="1.8" fill="#ffffff"/>
  <line x1="200" y1="68.72" x2="222" y2="68.72" stroke="#ffffff" stroke-width="0.55" />
  <line x1="200" y1="68.72" x2="200" y2="90.72" stroke="#ffffff" stroke-width="0.55" />
  <circle cx="200" cy="68.72" r="1.8" fill="#ffffff"/>
  <line x1="222" y1="68.72" x2="244" y2="68.72" stroke="#ffffff" stroke-width="0.55" />
  <line x1="222" y1="68.72" x2="222" y2="90.72" stroke="#ffffff" stroke-width="0.55" />
  <circle cx="222" cy="68.72" r="1.8" fill="#ffffff"/>
  <line x1="244" y1="68.72" x2="244" y2="90.72" stroke="#ffffff" stroke-width="0.55" />
  <circle cx="244" cy="68.72" r="1.8" fill="#ffffff"/>
  <line x1="156" y1="90.72" x2="178" y2="90.72" stroke="#ffffff" stroke-width="0.55" />
  <line x1="156" y1="90.72" x2="156" y2="112.72" stroke="#ffffff" stroke-width="0.55" />
  <circle cx="156" cy="90.72" r="1.8" fill="#ffffff"/>
  <line x1="178" y1="90.72" x2="200" y2="90.72" stroke="#ffffff" stroke-width="0.55" />
  <line x1="178" y1="90.72" x2="178" y2="112.72" stroke="#ffffff" stroke-width="0.55" />
  <circle cx="178" cy="90.72" r="1.8" fill="#ffffff"/>
  <line x1="200" y1="90.72" x2="222" y2="90.72" stroke="#ffffff" stroke-width="0.55" />
  <line x1="200" y1="90.72" x2="200" y2="112.72" stroke="#ffffff" stroke-width="0.55" />
  <circle cx="200" cy="90.72" r="1.8" fill="#ffffff"/>
  <line x1="222" y1="90.72" x2="244" y2="90.72" stroke="#ffffff" stroke-width="0.55" />
  <line x1="222" y1="90.72" x2="222" y2="112.72" stroke="#ffffff" stroke-width="0.55" />
  <circle cx="222" cy="90.72" r="1.8" fill="#ffffff"/>
  <line x1="244" y1="90.72" x2="244" y2="112.72" stroke="#ffffff" stroke-width="0.55" />
  <circle cx="244" cy="90.72" r="1.8" fill="#ffffff"/>
  <line x1="156" y1="112.72" x2="178" y2="112.72" stroke="#ffffff" stroke-width="0.55" />
  <line x1="156" y1="112.72" x2="156" y2="134.72" stroke="#ffffff" stroke-width="0.55" />
  <circle cx="156" cy="112.72" r="1.8" fill="#ffffff"/>
  <line x1="178" y1="112.72" x2="200" y2="112.72" stroke="#ffffff" stroke-width="0.55" />
  <line x1="178" y1="112.72" x2="178" y2="134.72" stroke="#ffffff" stroke-width="0.55" />
  <circle cx="178" cy="112.72" r="1.8" fill="#ffffff"/>
  <line x1="200" y1="112.72" x2="222" y2="112.72" stroke="#ffffff" stroke-width="0.55" />
  <line x1="200" y1="112.72" x2="200" y2="134.72" stroke="#ffffff" stroke-width="0.55" />
  <circle cx="200" cy="112.72" r="1.8" fill="#ffffff"/>
  <line x1="222" y1="112.72" x2="244" y2="112.72" stroke="#ffffff" stroke-width="0.55" />
  <line x1="222" y1="112.72" x2="222" y2="134.72" stroke="#ffffff" stroke-width="0.55" />
  <circle cx="222" cy="112.72" r="1.8" fill="#ffffff"/>
  <line x1="244" y1="112.72" x2="244" y2="134.72" stroke="#ffffff" stroke-width="0.55" />
  <circle cx="244" cy="112.72" r="1.8" fill="#ffffff"/>
  <line x1="156" y1="134.72" x2="178" y2="134.72" stroke="#ffffff" stroke-width="0.55" />
  <circle cx="156" cy="134.72" r="1.8" fill="#ffffff"/>
  <line x1="178" y1="134.72" x2="200" y2="134.72" stroke="#ffffff" stroke-width="0.55" />
  <circle cx="178" cy="134.72" r="1.8" fill="#ffffff"/>
  <line x1="200" y1="134.72" x2="222" y2="134.72" stroke="#ffffff" stroke-width="0.55" />
  <circle cx="200" cy="134.72" r="1.8" fill="#ffffff"/>
  <line x1="222" y1="134.72" x2="244" y2="134.72" stroke="#ffffff" stroke-width="0.55" />
  <circle cx="222" cy="134.72" r="1.8" fill="#ffffff"/>
  <circle cx="244" cy="134.72" r="1.8" fill="#ffffff"/>

  <text text-anchor="middle" fill="#2d2d2d" font-family="Georgia, 'Times New Roman', serif" font-size="21" font-weight="500"><tspan x="200" y="227">Code</tspan><tspan x="200" dy="26">Version 2.0</tspan></text>
  
  <path d="M 200 333 l 7 7 l -7 7 l -7 -7 Z" fill="none" stroke="#2d2d2d" stroke-width="1.1" />
  <path d="M 200 336 l 4 4 l -4 4 l -4 -4 Z" fill="#2d2d2d" />

  <text x="200" y="603.5" text-anchor="middle" fill="#ffffff" font-family="Georgia, 'Times New Roman', serif" font-size="11.5" letter-spacing="0.12em">LAWRENCE LESSIG</text>
</svg>