<?xml version="1.0" encoding="UTF-8"?>
<svg xmlns="http://www.w3.org/2000/svg" width="400" height="630" viewBox="0 0 400 630">
  <rect width="400" height="189" fill="#2d2d2d" />
  <rect y="189" width="400" height="378" fill="#f7f3ed" />
  <rect y="567" width="400" height="63" fill="#2d2d2d" />
  <line x1="0" y1="189" x2="400" y2="189" stroke="#c4b8a8" stroke-width="1" />
  <line x1="0" y1="191" x2="400" y2="191" stroke="#c4b8a8" stroke-width="0.5" opacity="0.85" />

  <line x1="200" y1="90.72" x2="200" y2="28.72" stroke="#ffffff" stroke-width="0.55" />
  <line x1="200" y1="90.72" x2="258.97" y2="71.56" stroke="#ffffff" stroke-width="0.55" />
  <line x1="200" y1="90.72" x2="236.44" y2="140.88" stroke="#ffffff" stroke-width="0.55" />
  <line x1="200" y1="90.72" x2="163.56" y2="140.88" stroke="#ffffff" stroke-width="0.55" />
  <line x1="200" y1="90.72" x2="141.03" y2="71.56" stroke="#ffffff" stroke-width="0.55" />
  <line x1="200" y1="28.72" x2="258.97" y2="71.56" stroke="#ffffff" stroke-width="0.55" />
  <line x1="258.97" y1="71.56" x2="236.44" y2="140.88" stroke="#ffffff" stroke-width="0.55" />
  <line x1="236.44" y1="140.88" x2="163.56" y2="140.88" stroke="#ffffff" stroke-width="0.55" />
  <line x1="163.56" y1="140.88" x2="141.03" y2="71.56" stroke="#ffffff" stroke-width="0.55" />
  <line x1="141.03" y1="71.56" x2="200" y2="28.72" stroke="#ffffff" stroke-width="0.55" />
  <line x1="200" y1="28.72" x2="236.44" y2="140.88" stroke="#ffffff" stroke-width="0.55" />
  <line x1="258.97" y1="71.56" x2="163.56" y2="140.88" stroke="#ffffff" stroke-width="0.55" />
  <line x1="236.44" y1="140.88" x2="141.03" y2="71.56" stroke="#ffffff" stroke-width="0.55" />
  <line x1="163.56" y1="140.88" x2="200" y2="28.72" stroke="#ffffff" stroke-width="0.55" />
  <line x1="141.03" y1="71.56" x2="258.97" y2="71.56" stroke="#ffffff" stroke-width="0.55" />
  <circle cx="200" cy="28.72" r="2.2" fill="#ffffff"/>
  <circle cx="258.97" cy="71.56" r="2.2" fill="#ffffff"/>
  <circle cx="236.44" cy="140.88" r="2.2" fill="#ffffff"/>
  <circle cx="163.56" cy="140.88" r="2.2" fill="#ffffff"/>
  <circle cx="141.03" cy="71.56" r="2.2" fill="#ffffff"/>
  <circle cx="200" cy="90.72" r="3.5" fill="#ffffff"/>

  <text text-anchor="middle" fill="#2d2d2d" font-family="Georgia, 'Times New Roman', serif" font-size="21" font-weight="500"><tspan x="200" y="227">Rebel Code</tspan></text>
  
  <path d="M 200 307 l 7 7 l -7 7 l -7 -7 Z" fill="none" stroke="#2d2d2d" stroke-width="1.1" />
  <path d="M 200 310 l 4 4 l -4 4 l -4 -4 Z" fill="#2d2d2d" />

  <text x="200" y="603.5" text-anchor="middle" fill="#ffffff" font-family="Georgia, 'Times New Roman', serif" font-size="11.5" letter-spacing="0.12em">GLYN MOODY</text>
</svg>