<?xml version="1.0" encoding="UTF-8"?>
<svg xmlns="http://www.w3.org/2000/svg" width="400" height="630" viewBox="0 0 400 630">
  <rect width="400" height="189" fill="#2d2d2d" />
  <rect y="189" width="400" height="378" fill="#f7f3ed" />
  <rect y="567" width="400" height="63" fill="#2d2d2d" />
  <line x1="0" y1="189" x2="400" y2="189" stroke="#c4b8a8" stroke-width="1" />
  <line x1="0" y1="191" x2="400" y2="191" stroke="#c4b8a8" stroke-width="0.5" opacity="0.85" />

  <line x1="150" y1="32.72" x2="250" y2="32.72" stroke="#ffffff" stroke-width="0.55" />
  <line x1="130" y1="50.72" x2="270" y2="50.72" stroke="#ffffff" stroke-width="0.55" />
  <line x1="140" y1="68.72" x2="260" y2="68.72" stroke="#ffffff" stroke-width="0.55" />
  <line x1="155" y1="86.72" x2="245" y2="86.72" stroke="#ffffff" stroke-width="0.55" />
  <line x1="135" y1="104.72" x2="265" y2="104.72" stroke="#ffffff" stroke-width="0.55" />
  <line x1="160" y1="122.72" x2="240" y2="122.72" stroke="#ffffff" stroke-width="0.55" />
  <line x1="145" y1="140.72" x2="255" y2="140.72" stroke="#ffffff" stroke-width="0.55" />

  <text text-anchor="middle" fill="#2d2d2d" font-family="Georgia, 'Times New Roman', serif" font-size="21" font-weight="500"><tspan x="200" y="227">Julian Assange</tspan><tspan x="200" dy="26">in his own Words</tspan></text>
  
  <path d="M 200 333 l 7 7 l -7 7 l -7 -7 Z" fill="none" stroke="#2d2d2d" stroke-width="1.1" />
  <path d="M 200 336 l 4 4 l -4 4 l -4 -4 Z" fill="#2d2d2d" />

  <text x="200" y="603.5" text-anchor="middle" fill="#ffffff" font-family="Georgia, 'Times New Roman', serif" font-size="11.5" letter-spacing="0.12em">JULIAN ASSANGE</text>
</svg>