<?xml version="1.0" encoding="UTF-8"?>
<svg xmlns="http://www.w3.org/2000/svg" width="400" height="630" viewBox="0 0 400 630">
  <rect width="400" height="189" fill="#2d2d2d" />
  <rect y="189" width="400" height="378" fill="#f7f3ed" />
  <rect y="567" width="400" height="63" fill="#2d2d2d" />
  <line x1="0" y1="189" x2="400" y2="189" stroke="#c4b8a8" stroke-width="1" />
  <line x1="0" y1="191" x2="400" y2="191" stroke="#c4b8a8" stroke-width="0.5" opacity="0.85" />

  <path d="M 130 90.72 L 131.17 96.46 L 132.33 102.11 L 133.5 107.56 L 134.67 112.72 L 135.83 117.51 L 137 121.83 L 138.17 125.63 L 139.33 128.83 L 140.5 131.37 L 141.67 133.22 L 142.83 134.34 L 144 134.72 L 145.17 134.34 L 146.33 133.22 L 147.5 131.37 L 148.67 128.83 L 149.83 125.63 L 151 121.83 L 152.17 117.51 L 153.33 112.72 L 154.5 107.56 L 155.67 102.11 L 156.83 96.46 L 158 90.72 L 159.17 84.98 L 160.33 79.33 L 161.5 73.88 L 162.67 68.72 L 163.83 63.93 L 165 59.61 L 166.17 55.81 L 167.33 52.61 L 168.5 50.07 L 169.67 48.22 L 170.83 47.1 L 172 46.72 L 173.17 47.1 L 174.33 48.22 L 175.5 50.07 L 176.67 52.61 L 177.83 55.81 L 179 59.61 L 180.17 63.93 L 181.33 68.72 L 182.5 73.88 L 183.67 79.33 L 184.83 84.98 L 186 90.72 L 187.17 96.46 L 188.33 102.11 L 189.5 107.56 L 190.67 112.72 L 191.83 117.51 L 193 121.83 L 194.17 125.63 L 195.33 128.83 L 196.5 131.37 L 197.67 133.22 L 198.83 134.34 L 200 134.72 L 201.17 134.34 L 202.33 133.22 L 203.5 131.37 L 204.67 128.83 L 205.83 125.63 L 207 121.83 L 208.17 117.51 L 209.33 112.72 L 210.5 107.56 L 211.67 102.11 L 212.83 96.46 L 214 90.72 L 215.17 84.98 L 216.33 79.33 L 217.5 73.88 L 218.67 68.72 L 219.83 63.93 L 221 59.61 L 222.17 55.81 L 223.33 52.61 L 224.5 50.07 L 225.67 48.22 L 226.83 47.1 L 228 46.72 L 229.17 47.1 L 230.33 48.22 L 231.5 50.07 L 232.67 52.61 L 233.83 55.81 L 235 59.61 L 236.17 63.93 L 237.33 68.72 L 238.5 73.88 L 239.67 79.33 L 240.83 84.98 L 242 90.72 L 243.17 96.46 L 244.33 102.11 L 245.5 107.56 L 246.67 112.72 L 247.83 117.51 L 249 121.83 L 250.17 125.63 L 251.33 128.83 L 252.5 131.37 L 253.67 133.22 L 254.83 134.34 L 256 134.72 L 257.17 134.34 L 258.33 133.22 L 259.5 131.37 L 260.67 128.83 L 261.83 125.63 L 263 121.83 L 264.17 117.51 L 265.33 112.72 L 266.5 107.56 L 267.67 102.11 L 268.83 96.46 L 270 90.72" fill="none" stroke="#ffffff" stroke-width="0.55" />
  <circle cx="200" cy="90.72" r="3.5" fill="#ffffff"/>

  <text text-anchor="middle" fill="#2d2d2d" font-family="Georgia, 'Times New Roman', serif" font-size="21" font-weight="500"><tspan x="200" y="227">Einleitungen zu Goethes</tspan><tspan x="200" dy="26">Naturwissenschaftlichen</tspan><tspan x="200" dy="26">Schriften</tspan></text>
  
  <path d="M 200 359 l 7 7 l -7 7 l -7 -7 Z" fill="none" stroke="#2d2d2d" stroke-width="1.1" />
  <path d="M 200 362 l 4 4 l -4 4 l -4 -4 Z" fill="#2d2d2d" />

  <text x="200" y="603.5" text-anchor="middle" fill="#ffffff" font-family="Georgia, 'Times New Roman', serif" font-size="11.5" letter-spacing="0.12em">RUDOLF STEINER</text>
</svg>