<?xml version="1.0" encoding="UTF-8"?>
<svg xmlns="http://www.w3.org/2000/svg" width="400" height="630" viewBox="0 0 400 630">
  <rect width="400" height="189" fill="#2d2d2d" />
  <rect y="189" width="400" height="378" fill="#f7f3ed" />
  <rect y="567" width="400" height="63" fill="#2d2d2d" />
  <line x1="0" y1="189" x2="400" y2="189" stroke="#c4b8a8" stroke-width="1" />
  <line x1="0" y1="191" x2="400" y2="191" stroke="#c4b8a8" stroke-width="0.5" opacity="0.85" />

  <path d="M 200 90.72 L 200.03 90.32 L 200.11 89.93 L 200.25 89.55 L 200.44 89.18 L 200.68 88.84 L 200.98 88.53 L 201.31 88.25 L 201.7 88.01 L 202.12 87.81 L 202.57 87.66 L 203.06 87.55 L 203.57 87.51 L 204.1 87.52 L 204.64 87.59 L 205.2 87.72 L 205.75 87.91 L 206.3 88.17 L 206.85 88.5 L 207.37 88.88 L 207.88 89.33 L 208.35 89.84 L 208.79 90.41 L 209.19 91.04 L 209.55 91.72 L 209.85 92.46 L 210.09 93.24 L 210.27 94.06 L 210.38 94.92 L 210.43 95.81 L 210.39 96.72 L 210.28 97.65 L 210.09 98.6 L 209.81 99.55 L 209.45 100.5 L 209 101.44 L 208.46 102.37 L 207.84 103.27 L 207.14 104.14 L 206.35 104.97 L 205.47 105.76 L 204.52 106.48 L 203.49 107.15 L 202.39 107.75 L 201.23 108.28 L 200 108.72 L 198.72 109.08 L 197.38 109.34 L 196.01 109.5 L 194.6 109.56 L 193.16 109.51 L 191.7 109.36 L 190.23 109.09 L 188.77 108.7 L 187.3 108.19 L 185.86 107.57 L 184.44 106.83 L 183.06 105.98 L 181.72 105 L 180.43 103.92 L 179.22 102.72 L 178.07 101.42 L 177.01 100.01 L 176.03 98.51 L 175.16 96.91 L 174.39 95.23 L 173.74 93.48 L 173.22 91.66 L 172.82 89.77 L 172.55 87.84 L 172.43 85.86 L 172.44 83.85 L 172.61 81.82 L 172.93 79.78 L 173.4 77.74 L 174.02 75.72 L 174.8 73.72 L 175.73 71.76 L 176.81 69.84 L 178.05 67.99 L 179.43 66.21 L 180.96 64.51 L 182.62 62.9 L 184.41 61.41 L 186.33 60.02 L 188.37 58.77 L 190.52 57.65 L 192.76 56.68 L 195.1 55.86 L 197.52 55.21 L 200 54.72 L 202.54 54.41 L 205.12 54.28 L 207.73 54.33 L 210.36 54.58 L 213 55.01 L 215.62 55.64 L 218.22 56.46 L 220.77 57.48 L 223.28 58.68 L 225.71 60.08 L 228.06 61.66 L 230.32 63.42 L 232.47 65.35 L 234.49 67.46 L 236.37 69.72 L 238.11 72.13 L 239.68 74.69 L 241.09 77.37 L 242.3 80.17 L 243.33 83.08 L 244.16 86.08 L 244.77 89.16 L 245.17 92.3 L 245.35 95.49 L 245.3 98.71 L 245.02 101.95 L 244.51 105.18 L 243.76 108.4 L 242.78 111.59 L 241.57 114.72 L 240.13 117.78 L 238.45 120.76 L 236.56 123.64 L 234.46 126.4 L 232.14 129.02 L 229.62 131.49 L 226.92 133.8 L 224.04 135.93 L 220.99 137.86 L 217.79 139.58 L 214.44 141.09 L 210.98 142.37 L 207.4 143.4 L 203.74 144.19 L 200 144.72 L 196.21 144.99 L 192.37 144.99 L 188.52 144.71 L 184.67 144.17 L 180.85 143.34 L 177.06 142.24 L 173.33 140.87 L 169.69 139.23 L 166.14 137.32 L 162.72 135.15 L 159.43 132.73 L 156.3 130.06 L 153.35 127.17 L 150.59 124.05 L 148.04 120.72 L 145.71 117.2 L 143.63 113.5 L 141.8 109.63 L 140.23 105.62 L 138.94 101.49 L 137.94 97.24 L 137.24 92.91 L 136.84 88.51 L 136.75 84.07 L 136.97 79.61 L 137.51 75.14 L 138.37 70.7 L 139.55 66.3 L 141.04 61.96 L 142.84 57.72 L 144.95 53.59 L 147.36 49.59 L 150.06 45.75 L 153.04 42.09 L 156.29 38.63 L 159.8 35.38 L 163.54 32.37 L 167.51 29.62 L 171.69 27.14 L 176.06 24.94 L 180.6 23.05 L 185.28 21.47 L 190.09 20.21 L 195.01 19.29 L 200 18.72" fill="none" stroke="#ffffff" stroke-width="0.55" />
  <circle cx="200" cy="90.72" r="3.5" fill="#ffffff"/>

  <text text-anchor="middle" fill="#2d2d2d" font-family="Georgia, 'Times New Roman', serif" font-size="21" font-weight="500"><tspan x="200" y="227">Goethes</tspan><tspan x="200" dy="26">Weltanschauung</tspan></text>
  
  <path d="M 200 333 l 7 7 l -7 7 l -7 -7 Z" fill="none" stroke="#2d2d2d" stroke-width="1.1" />
  <path d="M 200 336 l 4 4 l -4 4 l -4 -4 Z" fill="#2d2d2d" />

  <text x="200" y="603.5" text-anchor="middle" fill="#ffffff" font-family="Georgia, 'Times New Roman', serif" font-size="11.5" letter-spacing="0.12em">RUDOLF STEINER</text>
</svg>