<?xml version="1.0" encoding="UTF-8"?>
<svg xmlns="http://www.w3.org/2000/svg" width="400" height="630" viewBox="0 0 400 630">
  <rect width="400" height="189" fill="#2d2d2d" />
  <rect y="189" width="400" height="378" fill="#f7f3ed" />
  <rect y="567" width="400" height="63" fill="#2d2d2d" />
  <line x1="0" y1="189" x2="400" y2="189" stroke="#c4b8a8" stroke-width="1" />
  <line x1="0" y1="191" x2="400" y2="191" stroke="#c4b8a8" stroke-width="0.5" opacity="0.85" />

  <path d="M 143 56.72 L 213 56.72 L 213 152.72 L 143 152.72 Z" fill="none" stroke="#ffffff" stroke-width="0.55" />
  <path d="M 165 38.72 L 235 38.72 L 235 134.72 L 165 134.72 Z" fill="none" stroke="#ffffff" stroke-width="0.55" />
  <path d="M 187 22.72 L 257 22.72 L 257 118.72 L 187 118.72 Z" fill="none" stroke="#ffffff" stroke-width="0.55" />

  <text text-anchor="middle" fill="#2d2d2d" font-family="Georgia, 'Times New Roman', serif" font-size="21" font-weight="500"><tspan x="200" y="227">Various Interviews</tspan><tspan x="200" dy="26">and Articles</tspan></text>
  
  <path d="M 200 333 l 7 7 l -7 7 l -7 -7 Z" fill="none" stroke="#2d2d2d" stroke-width="1.1" />
  <path d="M 200 336 l 4 4 l -4 4 l -4 -4 Z" fill="#2d2d2d" />

  <text x="200" y="603.5" text-anchor="middle" fill="#ffffff" font-family="Georgia, 'Times New Roman', serif" font-size="11.5" letter-spacing="0.12em">JULIAN ASSANGE</text>
</svg>