<?xml version="1.0" encoding="UTF-8"?>
<svg xmlns="http://www.w3.org/2000/svg" width="400" height="630" viewBox="0 0 400 630">
  <rect width="400" height="189" fill="#2d2d2d" />
  <rect y="189" width="400" height="378" fill="#f7f3ed" />
  <rect y="567" width="400" height="63" fill="#2d2d2d" />
  <line x1="0" y1="189" x2="400" y2="189" stroke="#c4b8a8" stroke-width="1" />
  <line x1="0" y1="191" x2="400" y2="191" stroke="#c4b8a8" stroke-width="0.5" opacity="0.85" />

  <line x1="136" y1="130.72" x2="136" y2="64.05333333333333" stroke="#ffffff" stroke-width="0.55" />
  <line x1="188" y1="130.72" x2="188" y2="64.05333333333333" stroke="#ffffff" stroke-width="0.55" />
  <path d="M 136 64.05 Q 162 10.719999999999999 188 64.05" fill="none" stroke="#ffffff" stroke-width="0.55" />
  <line x1="130" y1="130.72" x2="194" y2="130.72" stroke="#ffffff" stroke-width="0.55" />
  <line x1="202" y1="10.719999999999999" x2="202" y2="138.72" stroke="#ffffff" stroke-width="0.55" stroke-dasharray="3,3"/>
  <line x1="222" y1="54.72" x2="276" y2="54.72" stroke="#ffffff" stroke-width="0.55" />
  <line x1="222" y1="72.72" x2="276" y2="72.72" stroke="#ffffff" stroke-width="0.55" />
  <line x1="222" y1="90.72" x2="276" y2="90.72" stroke="#ffffff" stroke-width="0.55" />
  <line x1="222" y1="108.72" x2="276" y2="108.72" stroke="#ffffff" stroke-width="0.55" />
  <line x1="222" y1="126.72" x2="276" y2="126.72" stroke="#ffffff" stroke-width="0.55" />
  <line x1="222" y1="54.72" x2="222" y2="126.72" stroke="#ffffff" stroke-width="0.55" />
  <line x1="240" y1="54.72" x2="240" y2="126.72" stroke="#ffffff" stroke-width="0.55" />
  <line x1="258" y1="54.72" x2="258" y2="126.72" stroke="#ffffff" stroke-width="0.55" />
  <line x1="276" y1="54.72" x2="276" y2="126.72" stroke="#ffffff" stroke-width="0.55" />

  <text text-anchor="middle" fill="#2d2d2d" font-family="Georgia, 'Times New Roman', serif" font-size="21" font-weight="500"><tspan x="200" y="227">The Cathedral</tspan><tspan x="200" dy="26">and the Bazaar</tspan></text>
  
  <path d="M 200 333 l 7 7 l -7 7 l -7 -7 Z" fill="none" stroke="#2d2d2d" stroke-width="1.1" />
  <path d="M 200 336 l 4 4 l -4 4 l -4 -4 Z" fill="#2d2d2d" />

  <text x="200" y="603.5" text-anchor="middle" fill="#ffffff" font-family="Georgia, 'Times New Roman', serif" font-size="11.5" letter-spacing="0.12em">ERIC S RAYMOND</text>
</svg>