<?xml version="1.0" encoding="UTF-8"?>
<svg xmlns="http://www.w3.org/2000/svg" width="400" height="630" viewBox="0 0 400 630">
  <rect width="400" height="189" fill="#2d2d2d" />
  <rect y="189" width="400" height="378" fill="#f7f3ed" />
  <rect y="567" width="400" height="63" fill="#2d2d2d" />
  <line x1="0" y1="189" x2="400" y2="189" stroke="#c4b8a8" stroke-width="1" />
  <line x1="0" y1="191" x2="400" y2="191" stroke="#c4b8a8" stroke-width="0.5" opacity="0.85" />

  <circle cx="200" cy="90.72" r="75" fill="none" stroke="#ffffff" stroke-width="0.55"/>
  <circle cx="200" cy="90.72" r="45" fill="none" stroke="#ffffff" stroke-width="0.55"/>
  <circle cx="200" cy="90.72" r="15" fill="none" stroke="#ffffff" stroke-width="0.55"/>
  <line x1="200" y1="75.72" x2="200" y2="15.72" stroke="#ffffff" stroke-width="0.55" />
  <circle cx="200" cy="15.72" r="1.8" fill="#ffffff"/>
  <line x1="207.5" y1="77.73" x2="237.5" y2="25.77" stroke="#ffffff" stroke-width="0.55" />
  <circle cx="237.5" cy="25.77" r="1.8" fill="#ffffff"/>
  <line x1="212.99" y1="83.22" x2="264.95" y2="53.22" stroke="#ffffff" stroke-width="0.55" />
  <circle cx="264.95" cy="53.22" r="1.8" fill="#ffffff"/>
  <line x1="215" y1="90.72" x2="275" y2="90.72" stroke="#ffffff" stroke-width="0.55" />
  <circle cx="275" cy="90.72" r="1.8" fill="#ffffff"/>
  <line x1="212.99" y1="98.22" x2="264.95" y2="128.22" stroke="#ffffff" stroke-width="0.55" />
  <circle cx="264.95" cy="128.22" r="1.8" fill="#ffffff"/>
  <line x1="207.5" y1="103.71" x2="237.5" y2="155.67" stroke="#ffffff" stroke-width="0.55" />
  <circle cx="237.5" cy="155.67" r="1.8" fill="#ffffff"/>
  <line x1="200" y1="105.72" x2="200" y2="165.72" stroke="#ffffff" stroke-width="0.55" />
  <circle cx="200" cy="165.72" r="1.8" fill="#ffffff"/>
  <line x1="192.5" y1="103.71" x2="162.5" y2="155.67" stroke="#ffffff" stroke-width="0.55" />
  <circle cx="162.5" cy="155.67" r="1.8" fill="#ffffff"/>
  <line x1="187.01" y1="98.22" x2="135.05" y2="128.22" stroke="#ffffff" stroke-width="0.55" />
  <circle cx="135.05" cy="128.22" r="1.8" fill="#ffffff"/>
  <line x1="185" y1="90.72" x2="125" y2="90.72" stroke="#ffffff" stroke-width="0.55" />
  <circle cx="125" cy="90.72" r="1.8" fill="#ffffff"/>
  <line x1="187.01" y1="83.22" x2="135.05" y2="53.22" stroke="#ffffff" stroke-width="0.55" />
  <circle cx="135.05" cy="53.22" r="1.8" fill="#ffffff"/>
  <line x1="192.5" y1="77.73" x2="162.5" y2="25.77" stroke="#ffffff" stroke-width="0.55" />
  <circle cx="162.5" cy="25.77" r="1.8" fill="#ffffff"/>
  <circle cx="200" cy="90.72" r="3.5" fill="#ffffff"/>

  <text text-anchor="middle" fill="#2d2d2d" font-family="Georgia, 'Times New Roman', serif" font-size="21" font-weight="500"><tspan x="200" y="227">Gesammelte Aufsätze</tspan><tspan x="200" dy="26">zur Kultur- und</tspan><tspan x="200" dy="26">Zeitgeschichte</tspan></text>
  
  <path d="M 200 359 l 7 7 l -7 7 l -7 -7 Z" fill="none" stroke="#2d2d2d" stroke-width="1.1" />
  <path d="M 200 362 l 4 4 l -4 4 l -4 -4 Z" fill="#2d2d2d" />

  <text x="200" y="603.5" text-anchor="middle" fill="#ffffff" font-family="Georgia, 'Times New Roman', serif" font-size="11.5" letter-spacing="0.12em">RUDOLF STEINER</text>
</svg>