<?xml version="1.0" encoding="UTF-8"?>
<svg xmlns="http://www.w3.org/2000/svg" width="400" height="630" viewBox="0 0 400 630">
  <rect width="400" height="189" fill="#2d2d2d" />
  <rect y="189" width="400" height="378" fill="#f7f3ed" />
  <rect y="567" width="400" height="63" fill="#2d2d2d" />
  <line x1="0" y1="189" x2="400" y2="189" stroke="#c4b8a8" stroke-width="1" />
  <line x1="0" y1="191" x2="400" y2="191" stroke="#c4b8a8" stroke-width="0.5" opacity="0.85" />

  <circle cx="200" cy="90.72" r="75" fill="none" stroke="#ffffff" stroke-width="0.55"/>
  <circle cx="200" cy="90.72" r="55" fill="none" stroke="#ffffff" stroke-width="0.55"/>
  <circle cx="200" cy="90.72" r="30" fill="none" stroke="#ffffff" stroke-width="0.55"/>
  <line x1="200" y1="22.72" x2="200" y2="15.72" stroke="#ffffff" stroke-width="0.55" />
  <line x1="216.27" y1="24.7" x2="217.95" y2="17.9" stroke="#ffffff" stroke-width="0.55" />
  <line x1="231.6" y1="30.51" x2="234.85" y2="24.31" stroke="#ffffff" stroke-width="0.55" />
  <line x1="245.09" y1="39.82" x2="249.73" y2="34.58" stroke="#ffffff" stroke-width="0.55" />
  <line x1="255.96" y1="52.09" x2="261.72" y2="48.12" stroke="#ffffff" stroke-width="0.55" />
  <line x1="263.58" y1="66.61" x2="270.13" y2="64.12" stroke="#ffffff" stroke-width="0.55" />
  <line x1="267.5" y1="82.52" x2="274.45" y2="81.68" stroke="#ffffff" stroke-width="0.55" />
  <line x1="267.5" y1="98.92" x2="274.45" y2="99.76" stroke="#ffffff" stroke-width="0.55" />
  <line x1="263.58" y1="114.83" x2="270.13" y2="117.32" stroke="#ffffff" stroke-width="0.55" />
  <line x1="255.96" y1="129.35" x2="261.72" y2="133.32" stroke="#ffffff" stroke-width="0.55" />
  <line x1="245.09" y1="141.62" x2="249.73" y2="146.86" stroke="#ffffff" stroke-width="0.55" />
  <line x1="231.6" y1="150.93" x2="234.85" y2="157.13" stroke="#ffffff" stroke-width="0.55" />
  <line x1="216.27" y1="156.74" x2="217.95" y2="163.54" stroke="#ffffff" stroke-width="0.55" />
  <line x1="200" y1="158.72" x2="200" y2="165.72" stroke="#ffffff" stroke-width="0.55" />
  <line x1="183.73" y1="156.74" x2="182.05" y2="163.54" stroke="#ffffff" stroke-width="0.55" />
  <line x1="168.4" y1="150.93" x2="165.15" y2="157.13" stroke="#ffffff" stroke-width="0.55" />
  <line x1="154.91" y1="141.62" x2="150.27" y2="146.86" stroke="#ffffff" stroke-width="0.55" />
  <line x1="144.04" y1="129.35" x2="138.28" y2="133.32" stroke="#ffffff" stroke-width="0.55" />
  <line x1="136.42" y1="114.83" x2="129.87" y2="117.32" stroke="#ffffff" stroke-width="0.55" />
  <line x1="132.5" y1="98.92" x2="125.55" y2="99.76" stroke="#ffffff" stroke-width="0.55" />
  <line x1="132.5" y1="82.52" x2="125.55" y2="81.68" stroke="#ffffff" stroke-width="0.55" />
  <line x1="136.42" y1="66.61" x2="129.87" y2="64.12" stroke="#ffffff" stroke-width="0.55" />
  <line x1="144.04" y1="52.09" x2="138.28" y2="48.12" stroke="#ffffff" stroke-width="0.55" />
  <line x1="154.91" y1="39.82" x2="150.27" y2="34.58" stroke="#ffffff" stroke-width="0.55" />
  <line x1="168.4" y1="30.51" x2="165.15" y2="24.31" stroke="#ffffff" stroke-width="0.55" />
  <line x1="183.73" y1="24.7" x2="182.05" y2="17.9" stroke="#ffffff" stroke-width="0.55" />
  <line x1="205.85" y1="43.08" x2="206.7" y2="36.13" stroke="#ffffff" stroke-width="0.55" />
  <line x1="217.08" y1="45.86" x2="219.57" y2="39.32" stroke="#ffffff" stroke-width="0.55" />
  <line x1="227.32" y1="51.25" x2="231.3" y2="45.5" stroke="#ffffff" stroke-width="0.55" />
  <line x1="235.97" y1="58.94" x2="241.22" y2="54.3" stroke="#ffffff" stroke-width="0.55" />
  <line x1="242.53" y1="68.47" x2="248.73" y2="65.23" stroke="#ffffff" stroke-width="0.55" />
  <line x1="246.62" y1="79.3" x2="253.42" y2="77.63" stroke="#ffffff" stroke-width="0.55" />
  <line x1="248" y1="90.78" x2="255" y2="90.79" stroke="#ffffff" stroke-width="0.55" />
  <line x1="246.59" y1="102.27" x2="253.38" y2="103.95" stroke="#ffffff" stroke-width="0.55" />
  <line x1="242.47" y1="113.08" x2="248.67" y2="116.35" stroke="#ffffff" stroke-width="0.55" />
  <line x1="235.89" y1="122.6" x2="241.12" y2="127.25" stroke="#ffffff" stroke-width="0.55" />
  <line x1="227.21" y1="130.26" x2="231.18" y2="136.03" stroke="#ffffff" stroke-width="0.55" />
  <line x1="216.96" y1="135.62" x2="219.43" y2="142.17" stroke="#ffffff" stroke-width="0.55" />
  <line x1="205.72" y1="138.38" x2="206.56" y2="145.33" stroke="#ffffff" stroke-width="0.55" />
  <line x1="194.15" y1="138.36" x2="193.3" y2="145.31" stroke="#ffffff" stroke-width="0.55" />
  <line x1="182.92" y1="135.58" x2="180.43" y2="142.12" stroke="#ffffff" stroke-width="0.55" />
  <line x1="172.68" y1="130.19" x2="168.7" y2="135.94" stroke="#ffffff" stroke-width="0.55" />
  <line x1="164.03" y1="122.5" x2="158.78" y2="127.14" stroke="#ffffff" stroke-width="0.55" />
  <line x1="157.47" y1="112.97" x2="151.27" y2="116.21" stroke="#ffffff" stroke-width="0.55" />
  <line x1="153.38" y1="102.14" x2="146.58" y2="103.81" stroke="#ffffff" stroke-width="0.55" />
  <line x1="152" y1="90.66" x2="145" y2="90.65" stroke="#ffffff" stroke-width="0.55" />
  <line x1="153.41" y1="79.17" x2="146.62" y2="77.49" stroke="#ffffff" stroke-width="0.55" />
  <line x1="157.53" y1="68.36" x2="151.33" y2="65.09" stroke="#ffffff" stroke-width="0.55" />
  <line x1="164.11" y1="58.84" x2="158.88" y2="54.19" stroke="#ffffff" stroke-width="0.55" />
  <line x1="172.79" y1="51.18" x2="168.82" y2="45.41" stroke="#ffffff" stroke-width="0.55" />
  <line x1="183.04" y1="45.82" x2="180.57" y2="39.27" stroke="#ffffff" stroke-width="0.55" />
  <line x1="194.28" y1="43.06" x2="193.44" y2="36.11" stroke="#ffffff" stroke-width="0.55" />
  <circle cx="200" cy="90.72" r="3.5" fill="#ffffff"/>

  <text text-anchor="middle" fill="#2d2d2d" font-family="Georgia, 'Times New Roman', serif" font-size="21" font-weight="500"><tspan x="200" y="227">Cypherpunks</tspan></text>
  
  <path d="M 200 307 l 7 7 l -7 7 l -7 -7 Z" fill="none" stroke="#2d2d2d" stroke-width="1.1" />
  <path d="M 200 310 l 4 4 l -4 4 l -4 -4 Z" fill="#2d2d2d" />

  <text x="200" y="603.5" text-anchor="middle" fill="#ffffff" font-family="Georgia, 'Times New Roman', serif" font-size="11.5" letter-spacing="0.12em">JULIAN ASSANGE</text>
</svg>